<svg width="41" height="40" viewBox="0 0 41 40" fill="none" xmlns="http://www.w3.org/2000/svg">
<g filter="url(#filter0_d_34_1543)">
<path d="M6.65271 8.42857V4H9.77665V8.42857H14.4626V11.381H9.77665V15.8095H6.65271V11.381H1.9668V8.42857H6.65271ZM11.3386 17.2857V12.8571H16.0245V8.42857H26.9583L29.8167 11.381H34.7682C36.4863 11.381 37.8921 12.7095 37.8921 14.3333V32.0476C37.8921 33.6714 36.4863 35 34.7682 35H9.77665C8.05848 35 6.65271 33.6714 6.65271 32.0476V17.2857H11.3386ZM22.2724 30.5714C26.5834 30.5714 30.0823 27.2648 30.0823 23.1905C30.0823 19.1162 26.5834 15.8095 22.2724 15.8095C17.9614 15.8095 14.4626 19.1162 14.4626 23.1905C14.4626 27.2648 17.9614 30.5714 22.2724 30.5714ZM17.2741 23.1905C17.2741 25.8033 19.5077 27.9143 22.2724 27.9143C25.0371 27.9143 27.2707 25.8033 27.2707 23.1905C27.2707 20.5776 25.0371 18.4667 22.2724 18.4667C19.5077 18.4667 17.2741 20.5776 17.2741 23.1905Z" fill="#A63665"/>
</g>
<defs>
<filter id="filter0_d_34_1543" x="-4.0332" y="-1" width="47.9253" height="43" filterUnits="userSpaceOnUse" color-interpolation-filters="sRGB">
<feFlood flood-opacity="0" result="BackgroundImageFix"/>
<feColorMatrix in="SourceAlpha" type="matrix" values="0 0 0 0 0 0 0 0 0 0 0 0 0 0 0 0 0 0 127 0" result="hardAlpha"/>
<feMorphology radius="1" operator="dilate" in="SourceAlpha" result="effect1_dropShadow_34_1543"/>
<feOffset dy="1"/>
<feGaussianBlur stdDeviation="2.5"/>
<feColorMatrix type="matrix" values="0 0 0 0 0 0 0 0 0 0.1625 0 0 0 0 0.1625 0 0 0 0.2 0"/>
<feBlend mode="normal" in2="BackgroundImageFix" result="effect1_dropShadow_34_1543"/>
<feBlend mode="normal" in="SourceGraphic" in2="effect1_dropShadow_34_1543" result="shape"/>
</filter>
</defs>
</svg>
