<svg width="35" height="39" viewBox="0 0 35 39" fill="none" xmlns="http://www.w3.org/2000/svg">
<g filter="url(#filter0_d_832_5)">
<path d="M0.875 5.375C0.642936 5.375 0.420376 5.46719 0.256282 5.63128C0.0921872 5.79538 0 6.01794 0 6.25L0 30.75C0 30.9821 0.0921872 31.2046 0.256282 31.3687C0.420376 31.5328 0.642936 31.625 0.875 31.625H34.125C34.3571 31.625 34.5796 31.5328 34.7437 31.3687C34.9078 31.2046 35 30.9821 35 30.75V6.25C35 6.01794 34.9078 5.79538 34.7437 5.63128C34.5796 5.46719 34.3571 5.375 34.125 5.375H0.875ZM1.75 7.125H17.0607L17.0492 9.12315L11.2112 18.8822L1.75 23.5284V7.125ZM18.1115 7.125H33.25V16.2628L24.1563 16.4018L18.0999 9.1032L18.1115 7.125ZM17.6102 10.2249L23.3363 17.0605L21.2852 21.3458L17.8083 21.8344L12.3056 19.1017L17.6102 10.2249ZM33.25 17.3664V29.875H30.7188L22.2729 21.7246L24.3169 17.4531L33.25 17.3664ZM11.5531 19.8807L17.2057 22.6993L17.8381 29.875H1.75V24.6859L11.5531 19.8807ZM21.4442 22.3832L29.2068 29.875H18.893L18.27 22.8298L21.4442 22.3832Z" fill="#A63665"/>
</g>
<g filter="url(#filter1_d_832_5)">
<path d="M21.1281 25.0555C20.7568 25.0555 20.4007 25.203 20.1382 25.4655C19.8756 25.7281 19.7281 26.0842 19.7281 26.4555C19.7281 26.8268 19.8756 27.1829 20.1382 27.4454C20.4007 27.708 20.7568 27.8555 21.1281 27.8555C21.4994 27.8555 21.8555 27.708 22.1181 27.4454C22.3806 27.1829 22.5281 26.8268 22.5281 26.4555C22.5281 26.0842 22.3806 25.7281 22.1181 25.4655C21.8555 25.203 21.4994 25.0555 21.1281 25.0555ZM27.8117 20.2444C27.4404 20.2444 27.0843 20.3919 26.8218 20.6544C26.5592 20.917 26.4117 21.2731 26.4117 21.6444C26.4117 22.0157 26.5592 22.3718 26.8218 22.6343C27.0843 22.8969 27.4404 23.0444 27.8117 23.0444C28.183 23.0444 28.5391 22.8969 28.8017 22.6343C29.0642 22.3718 29.2117 22.0157 29.2117 21.6444C29.2117 21.2731 29.0642 20.917 28.8017 20.6544C28.5391 20.3919 28.183 20.2444 27.8117 20.2444ZM26.0964 10.3817C25.7251 10.3817 25.369 10.5292 25.1064 10.7918C24.8439 11.0543 24.6964 11.4104 24.6964 11.7817C24.6964 11.9656 24.7326 12.1476 24.8029 12.3175C24.8733 12.4873 24.9764 12.6417 25.1064 12.7717C25.2364 12.9017 25.3908 13.0048 25.5606 13.0752C25.7305 13.1455 25.9125 13.1817 26.0964 13.1817C26.4677 13.1817 26.8238 13.0342 27.0863 12.7717C27.3489 12.5091 27.4964 12.153 27.4964 11.7817C27.4964 11.4104 27.3489 11.0543 27.0863 10.7918C26.8238 10.5292 26.4677 10.3817 26.0964 10.3817ZM8.39268 10.1367C8.02137 10.1367 7.66528 10.2842 7.40273 10.5468C7.14018 10.8093 6.99268 11.1654 6.99268 11.5367C6.99268 11.908 7.14018 12.2641 7.40273 12.5267C7.66528 12.7892 8.02137 12.9367 8.39268 12.9367C8.76398 12.9367 9.12007 12.7892 9.38263 12.5267C9.64518 12.2641 9.79268 11.908 9.79268 11.5367C9.79268 11.1654 9.64518 10.8093 9.38263 10.5468C9.12007 10.2842 8.76398 10.1367 8.39268 10.1367ZM18.8678 16.0174C18.4965 16.0174 18.1404 16.1649 17.8779 16.4275C17.6153 16.69 17.4678 17.0461 17.4678 17.4174C17.4678 17.7887 17.6153 18.1448 17.8779 18.4074C18.1404 18.6699 18.4965 18.8174 18.8678 18.8174C19.2391 18.8174 19.5952 18.6699 19.8578 18.4074C20.1203 18.1448 20.2678 17.7887 20.2678 17.4174C20.2678 17.0461 20.1203 16.69 19.8578 16.4275C19.5952 16.1649 19.2391 16.0174 18.8678 16.0174ZM13.6605 23.5522C13.2892 23.5522 12.9331 23.6997 12.6706 23.9623C12.408 24.2248 12.2605 24.5809 12.2605 24.9522C12.2605 25.3235 12.408 25.6796 12.6706 25.9422C12.9331 26.2047 13.2892 26.3522 13.6605 26.3522C14.0318 26.3522 14.3879 26.2047 14.6505 25.9422C14.913 25.6796 15.0605 25.3235 15.0605 24.9522C15.0605 24.5809 14.913 24.2248 14.6505 23.9623C14.3879 23.6997 14.0318 23.5522 13.6605 23.5522Z" fill="#A63665"/>
</g>
<defs>
<filter id="filter0_d_832_5" x="-6" y="0.375" width="47" height="38.25" filterUnits="userSpaceOnUse" color-interpolation-filters="sRGB">
<feFlood flood-opacity="0" result="BackgroundImageFix"/>
<feColorMatrix in="SourceAlpha" type="matrix" values="0 0 0 0 0 0 0 0 0 0 0 0 0 0 0 0 0 0 127 0" result="hardAlpha"/>
<feMorphology radius="1" operator="dilate" in="SourceAlpha" result="effect1_dropShadow_832_5"/>
<feOffset dy="1"/>
<feGaussianBlur stdDeviation="2.5"/>
<feColorMatrix type="matrix" values="0 0 0 0 0 0 0 0 0 0.1625 0 0 0 0 0.1625 0 0 0 0.2 0"/>
<feBlend mode="normal" in2="BackgroundImageFix" result="effect1_dropShadow_832_5"/>
<feBlend mode="normal" in="SourceGraphic" in2="effect1_dropShadow_832_5" result="shape"/>
</filter>
<filter id="filter1_d_832_5" x="0.992676" y="5.13672" width="34.2192" height="29.7188" filterUnits="userSpaceOnUse" color-interpolation-filters="sRGB">
<feFlood flood-opacity="0" result="BackgroundImageFix"/>
<feColorMatrix in="SourceAlpha" type="matrix" values="0 0 0 0 0 0 0 0 0 0 0 0 0 0 0 0 0 0 127 0" result="hardAlpha"/>
<feMorphology radius="1" operator="dilate" in="SourceAlpha" result="effect1_dropShadow_832_5"/>
<feOffset dy="1"/>
<feGaussianBlur stdDeviation="2.5"/>
<feColorMatrix type="matrix" values="0 0 0 0 0 0 0 0 0 0.1625 0 0 0 0 0.1625 0 0 0 0.2 0"/>
<feBlend mode="normal" in2="BackgroundImageFix" result="effect1_dropShadow_832_5"/>
<feBlend mode="normal" in="SourceGraphic" in2="effect1_dropShadow_832_5" result="shape"/>
</filter>
</defs>
</svg>
