<svg width="35" height="39" viewBox="0 0 35 39" fill="none" xmlns="http://www.w3.org/2000/svg">
<g filter="url(#filter0_d_34_1580)">
<path fill-rule="evenodd" clip-rule="evenodd" d="M0.913673 3.82243C0.798062 3.82132 0.683377 3.84313 0.576245 3.88661C0.469114 3.93008 0.371661 3.99436 0.289518 4.07572C0.207375 4.15708 0.14217 4.25392 0.0976732 4.36063C0.053176 4.46734 0.0302681 4.58181 0.0302734 4.69743V29.2989C0.0303014 29.4657 0.0779869 29.629 0.167713 29.7696C0.25744 29.9101 0.38547 30.0221 0.536723 30.0924L11.6202 35.2409C11.7357 35.2946 11.8616 35.3225 11.9891 35.3225C12.1165 35.3225 12.2424 35.2946 12.358 35.2409L23.0725 30.2639L33.7871 35.2409C34.367 35.5104 35.0306 35.0869 35.0306 34.4474V9.84628C35.0307 9.67945 34.983 9.51609 34.8933 9.37545C34.8035 9.23481 34.6755 9.12275 34.5242 9.05248L23.4407 3.90398C23.3252 3.85025 23.1993 3.82241 23.0718 3.82241C22.9444 3.82241 22.8185 3.85025 22.7029 3.90398L11.9884 8.88098L1.27382 3.90398C1.16083 3.85144 1.03793 3.82363 0.913323 3.82243H0.913673ZM23.4631 5.84368L25.1025 6.60528C25.0483 6.60808 25.0476 6.67073 25.022 6.70188C25.113 6.93638 25.1774 6.80548 25.3136 6.82473C25.3587 6.79008 25.3167 6.74003 25.3178 6.70503L33.2803 10.4042V33.0761L31.217 32.1178C31.2625 31.9526 31.3241 31.8588 31.3605 31.7314C31.3672 31.6548 31.3185 31.5928 31.2993 31.5291C31.2104 31.4602 31.196 31.4115 31.0921 31.2908C30.6633 31.0388 30.5268 30.7437 30.2703 30.3664C30.1278 30.2604 30.0767 30.1739 29.9511 30.0675C29.9242 30.0146 29.8857 29.9684 29.8384 29.9324C29.5755 29.8232 29.4254 29.6402 29.2395 29.4585C29.2353 29.4515 29.2353 29.4508 29.2353 29.4536C29.054 29.0427 28.6529 28.8761 28.3558 28.6252C28.4002 28.3767 28.2742 28.4421 28.1601 28.3546C28.0436 28.4922 28.0096 28.4054 27.8633 28.3406C27.7321 28.3469 27.639 28.3231 27.5819 28.3217C27.3418 28.1796 27.2617 28.0907 27.1094 27.9266C27.0898 27.8979 27.0762 27.8681 27.0205 27.8534C26.8126 28.1019 26.7951 27.9728 26.5298 27.7579C26.5613 27.7607 26.5466 27.7638 26.5347 27.7502C26.4945 27.6515 26.3954 27.5717 26.3478 27.5122C25.9814 27.5507 25.9499 27.5374 25.7301 27.2294C25.6978 27.1469 25.6453 27.0739 25.5775 27.0169C25.2873 26.949 25.12 26.9028 24.8995 26.6424C24.539 26.8314 24.3241 26.6298 24.0238 26.4643C23.8254 26.4107 23.7424 26.297 23.6388 26.1556C23.6195 26.1499 23.5989 26.1494 23.5793 26.1542L23.5296 17.4609C23.5366 17.4581 23.5447 17.4598 23.5513 17.456C23.7235 17.2516 23.607 17.0482 23.5261 16.8477L23.524 16.5344C23.5265 16.533 23.5233 16.5341 23.531 16.5309C23.8359 16.435 24.0091 16.2866 24.3129 16.3458C24.3885 16.525 24.4624 16.7122 24.5187 16.9145C24.5061 17.114 24.6248 17.106 24.734 17.1928C24.9881 17.4028 24.9475 17.7745 25.0182 18.0664C25.1617 18.3058 25.0301 18.1938 24.8967 18.0534C24.5408 18.0051 24.7284 18.3152 24.8897 18.5574C24.9877 18.6302 25.0017 18.7349 25.0539 18.8339C25.3034 19.3894 25.5372 19.7674 26.0048 20.0939C26.3016 20.4264 26.3583 20.3074 26.5508 20.236C26.4584 20.0337 26.3261 19.9347 26.1553 19.7947C26.0055 19.7107 25.9149 19.6494 25.8687 19.6022C25.8137 19.528 25.9415 19.5525 25.9754 19.5294C25.9901 19.5854 26.0069 19.6407 26.0601 19.6729V19.6736C26.0955 19.6949 26.1693 19.7415 26.2211 19.7754C26.3639 19.8689 26.4262 19.9235 26.5186 19.9354C26.8112 19.6284 26.6397 19.9711 26.7213 19.9949C26.7276 20.0089 26.7423 20.0782 26.7423 20.1076C26.8651 20.3883 26.9708 20.2836 27.1756 20.3036C27.1926 20.2888 27.2062 20.2706 27.2156 20.2501C27.2249 20.2297 27.2298 20.2074 27.2298 20.1849V20.1842C27.2304 20.129 27.2192 20.0742 27.1969 20.0236C27.213 20.0082 27.2137 20.0194 27.2557 20.0085C27.5238 19.963 27.2687 19.8682 27.5025 20.1268C27.6498 20.2266 27.4377 20.1408 27.394 20.1506H27.3919C27.369 20.1549 27.3479 20.1661 27.3317 20.1828C27.3184 20.4019 27.4181 20.4145 27.6106 20.5171C27.8773 20.5556 27.8479 20.6151 28.0145 20.7446C28.0306 20.7533 28.1248 20.8251 28.2032 20.8979C28.2816 20.9707 28.3607 21.0585 28.3708 21.0743C28.3985 21.103 28.3736 21.0942 28.3754 21.1065H28.3747C28.3556 21.1285 28.3395 21.1528 28.3267 21.1789C28.3295 21.3546 28.4485 21.3868 28.5906 21.4659C28.6284 21.5345 28.6876 21.5779 28.7481 21.6108C28.7185 21.6348 28.6954 21.6659 28.6809 21.7011C28.6652 21.7438 28.6564 21.7914 28.6564 21.8411C28.6556 21.9125 28.6486 21.9837 28.6354 22.0539C28.6018 22.0179 28.5644 21.9769 28.5245 21.93C28.4051 21.7708 28.4216 21.7001 28.452 21.5254C28.3386 21.3893 28.2 21.3238 28.0481 21.2213C27.8567 21.1338 27.8451 21.18 27.6747 21.3074C27.3509 21.1996 27.1917 21.2783 26.9904 21.3928C26.9607 21.5107 26.8252 21.4138 26.7545 21.4222C26.5603 21.3623 26.3926 21.4337 26.282 21.4456C26.2523 21.5135 26.2505 21.5891 26.2439 21.7232C26.254 22.0546 26.3513 22.3385 26.393 22.6458C26.365 22.8376 26.4542 22.9433 26.5323 23.0773C26.8193 23.266 27.2211 23.287 27.5312 23.2919C27.7657 23.3384 27.8952 23.4711 28.0331 23.6254C28.1535 23.8788 28.3236 24.0552 28.4951 24.2372C28.6057 24.5477 28.7838 24.6698 29.0337 24.8196C29.0827 24.8375 29.0302 24.8504 29.0302 24.8525C28.8843 24.9743 28.9501 25.0541 28.9872 25.2183C29.0813 25.4794 29.1226 25.4549 29.3617 25.4335C29.4908 25.2774 29.4331 25.1878 29.4072 25.0352C28.9977 24.9131 29.4366 24.89 29.5493 24.884C29.6144 24.7482 29.6655 24.6145 29.733 24.4808C29.8587 24.2743 29.887 24.17 29.8849 23.9114C29.8657 23.2044 29.3277 22.8603 29.2024 22.2482C29.1893 22.204 29.1732 22.1607 29.1541 22.1187C29.0757 22.0378 29.0551 21.922 29.011 21.8264C29.0029 21.7379 28.97 21.6784 28.9536 21.6199C28.9662 21.6122 28.9798 21.6094 28.99 21.5989C29.0978 21.7449 29.222 21.8817 29.3529 22.0203C29.5766 22.2401 29.5654 22.0081 29.6497 21.9773C29.5972 21.8639 29.5223 21.7645 29.459 21.6675C29.5465 21.7116 29.6368 21.7389 29.7166 21.7211C29.8041 21.6672 29.7743 21.7781 29.8041 21.8079C29.9836 22.0921 30.1898 22.2261 30.3455 22.4708C30.4239 22.5334 30.4834 22.4463 30.537 22.4368C30.419 22.0798 30.1765 21.8254 29.8391 21.6329C29.9154 21.4943 29.789 21.4309 29.7474 21.3466C29.6354 21.3879 29.5636 21.3749 29.4898 21.3581C29.7043 21.3567 29.5584 21.251 29.5566 21.1187C29.4656 21.047 29.425 21.1992 29.3911 21.2202C29.3911 21.2829 29.4177 21.3252 29.4716 21.3553C29.397 21.3536 29.3389 21.3165 29.2784 21.2986C29.0495 21.124 29.306 21.2129 29.3344 21.1236C29.417 20.9325 29.2308 20.9749 29.1702 20.9129C29.0204 21.1821 29.1037 21.0834 28.7828 20.7586L28.4405 20.4639C28.2091 20.641 28.3054 20.4058 28.2011 20.3512C27.9599 20.1058 27.9344 20.2031 27.7776 20.1685C27.7653 20.2448 27.6789 20.2049 27.6523 20.2143C27.6771 20.1755 27.7233 20.1541 27.7492 20.1324C27.8602 20.0925 27.7412 19.9802 27.737 19.9039V19.9032C27.7244 19.8648 27.7071 19.8281 27.6855 19.794C27.472 19.7233 27.2228 19.598 26.9918 19.4951C26.8693 19.5259 26.8844 19.3754 26.8305 19.3155C26.8546 19.298 26.9155 19.284 26.933 19.2777L27.1161 19.2847C27.1423 19.276 27.3418 19.4496 27.4241 19.5052C27.5256 19.5255 27.5613 19.4398 27.5613 19.3687L27.5228 19.0446C27.5179 18.8966 27.345 18.9529 27.2967 18.9277C27.2984 18.8854 27.2491 18.7975 27.248 18.7947C27.409 18.6971 27.3397 18.6677 27.325 18.4951C27.2947 18.4504 27.2561 18.4119 27.2113 18.3817C27.0989 18.3404 27.2183 18.3023 27.2221 18.2519C27.2589 18.0709 27.1441 18.0006 27.0706 17.8896C27.0076 17.7251 26.8767 17.9187 26.8441 17.9236C26.8462 18.4339 26.9222 18.3845 26.583 18.6845C26.5676 18.8542 26.4101 18.8381 26.359 18.8752C26.233 18.9956 26.1581 18.9407 25.9705 18.9407C25.8158 19.1122 25.8533 19.0835 25.9194 19.3624C25.8235 19.2119 25.6884 19.0453 25.5824 18.9155C25.603 18.9085 25.6211 18.8955 25.6342 18.878C25.6713 18.7545 25.6188 18.6239 25.5932 18.4979C25.5379 18.3079 25.4347 18.1854 25.3328 18.0412C25.2345 17.7531 25.4116 18.0167 25.4742 18.0972C25.4637 18.1791 25.5586 18.2687 25.5852 18.3201C25.7164 18.3123 25.8466 18.2914 25.9737 18.2578C26.1042 18.2141 26.0622 18.0695 26.0857 17.9883C25.8778 17.5064 26.1067 17.4346 26.5263 17.4157C26.597 17.4171 26.6583 17.414 26.7129 17.3965C26.9019 17.4262 26.8354 17.4749 26.8613 17.6632C26.8914 17.828 27.0363 17.6712 27.0793 17.6737C27.1987 17.4913 27.1213 17.3461 27.0664 17.1949L27.0559 17.1179C27.2351 16.8746 27.163 16.6296 27.0772 16.3923C27.0491 16.3296 27.0245 16.2653 27.0037 16.1998C27.1563 16.1298 27.2312 16.1984 27.3383 16.2114C27.3317 16.3538 27.3397 16.4942 27.3439 16.6468L27.5634 16.6755C27.6299 16.6839 27.6887 16.6937 27.7471 16.651C27.8756 16.484 27.786 16.301 27.7398 16.1361V16.1354L27.7013 16.0595L27.7076 16.0574C27.7447 16.0441 27.7776 16.0259 27.8045 16.0028C27.9473 15.8572 27.878 15.8684 28.144 15.9618C28.2336 15.9496 28.3155 15.8988 28.3981 15.8222C28.7264 15.4466 28.6932 15.4134 28.6515 15.9261C28.5855 16.0554 28.537 16.1929 28.5073 16.3349C28.5248 16.798 28.4573 16.4224 28.3187 16.5572C28.1804 16.7164 27.9883 16.6219 27.8052 16.6405C27.6348 16.6783 27.6705 16.8127 27.6201 16.8956C27.6946 16.9649 27.7191 17.0706 27.7643 17.1991C28.0257 17.1046 28.3127 17.1385 28.6414 17.1676C28.7667 17.1522 28.7761 17.0122 28.822 16.9425C28.844 16.8092 28.8808 16.4816 28.8825 16.462C29.0568 16.4375 29.1923 16.3787 29.312 16.3255C29.3582 16.315 29.389 16.2856 29.4205 16.2562C29.4432 16.2691 29.466 16.2831 29.4877 16.2849C29.6872 16.3419 29.5871 16.0924 29.6011 16.0651C29.5846 16.0495 29.5647 16.0382 29.543 16.032C29.5212 16.0258 29.4983 16.0249 29.4761 16.0294C29.1104 16.1382 29.1471 16.0357 28.9448 15.8873C28.7901 15.6584 29.0785 15.6451 29.1177 15.5723C29.0953 15.2765 29.0232 14.9388 28.9942 14.6819C28.892 14.4376 28.5836 14.3854 28.3876 14.2363C28.571 14.1282 28.7131 14.0274 28.8822 13.9073C29.0572 13.9808 29.2588 14.0732 29.4684 14.1544C29.4691 14.1954 29.4849 14.2454 29.5174 14.2773C29.6329 14.3711 29.8034 14.39 29.9315 14.4257C29.9513 14.4201 29.9697 14.4102 29.9851 14.3965C30.0006 14.3829 30.0128 14.3659 30.0207 14.3469C29.9378 14.1565 30.0613 14.2059 30.146 14.0662C30.222 14.0564 30.1985 14.1299 30.2125 14.146C30.3291 14.3833 30.1919 14.3595 30.1362 14.4981C29.8982 14.678 29.9395 14.7337 29.8555 14.9493C29.852 15.0781 29.866 15.2475 29.8965 15.4421C29.9381 15.7207 29.9143 15.5782 29.8247 15.8166C29.8737 15.9748 29.9997 15.8645 30.0893 15.875C30.1989 15.721 30.3011 15.7084 30.4173 15.6213C30.4155 15.4809 30.5002 15.525 30.5615 15.4536C30.5797 15.3399 30.6476 15.2856 30.6934 15.1932C30.7277 15.0987 30.6889 15.0056 30.6833 14.9185C31.0175 14.649 30.8803 14.7963 31.1208 14.8653C31.356 14.9283 31.6213 14.7792 31.8495 14.7865C31.9317 14.937 32.0399 14.7673 32.0934 14.762C32.1284 14.678 32.1074 14.6003 32.0763 14.482C31.9289 14.3035 32.2065 14.321 32.2138 14.3123C32.3706 14.4117 32.4224 14.5895 32.5432 14.7407C32.7192 14.7743 32.5981 14.8352 32.6492 14.9227C32.6821 15.0249 32.7556 15.0669 32.8155 15.1432C33.0013 15.3336 32.9628 15.0452 33.0069 15.0154C33.0153 14.8348 32.8925 14.8432 32.7941 14.7673C32.8393 14.6273 32.9079 14.6056 32.9849 14.4831C32.9814 14.1849 32.7777 14.0085 32.5708 13.8104C32.2432 13.2784 31.8757 12.8612 31.3854 12.5336C30.5062 12.3484 30.6056 11.8542 29.9927 11.5536C29.6865 11.3814 29.5993 11.0975 29.3953 10.8641C28.8773 10.6716 28.774 9.53513 29.2472 10.1606C29.5038 10.3898 29.508 10.2799 29.6557 10.1252C29.5776 10.0113 29.4912 9.9032 29.3974 9.80183C29.3407 9.74952 29.2784 9.70373 29.2115 9.66533C28.9847 9.43678 28.7509 9.21278 28.4909 9.06963C28.2063 9.05073 28.2483 9.11058 28.1157 9.24883C28.1997 9.52918 28.3859 9.76508 28.5171 9.93938C28.5007 10.1994 28.452 10.4203 28.4002 10.6243C27.8927 10.2698 27.772 10.1921 27.5763 9.55368C27.5133 9.51623 27.4661 9.45743 27.4129 9.41088C27.1679 9.18373 27.2064 9.31393 27.072 9.45603C26.8585 9.42033 26.96 9.33563 26.8994 9.26878C26.7874 9.08293 26.61 9.02553 26.4497 8.94678C26.4206 8.94398 26.4241 8.94083 26.4287 8.94538C26.1301 8.63913 26.3664 8.59643 26.4637 8.26708C26.4388 7.97378 26.2761 7.70953 26.0328 7.58353C25.9313 7.53138 25.8571 7.40153 25.8004 7.33398V7.33328C25.7168 6.92728 25.5327 6.86638 25.2331 7.06798C25.1645 7.22093 25.092 7.23598 24.9979 7.32593C24.9359 7.31333 24.9044 7.27798 24.8558 7.25243C24.5758 7.05293 24.2293 7.11523 23.9192 7.16493C23.7288 7.47398 23.8709 7.53418 23.4719 7.42498L23.4631 5.84368ZM22.4138 5.96758L22.4152 6.14608C22.0218 6.50798 21.5948 6.92868 21.34 7.30668C21.1055 7.70428 21.0394 8.16278 20.9263 8.51873C20.9106 8.60553 20.877 8.67798 20.8458 8.76828C20.8871 8.93733 21.0488 8.99438 21.1521 9.10778C21.3911 9.03078 21.4195 9.08538 21.592 9.17078C21.4702 9.20928 21.3722 9.32268 21.291 9.39793L21.29 9.39653C21.1185 9.31778 21.0985 9.41053 20.9729 9.52253C20.9687 9.52953 20.9638 9.53548 20.9589 9.54283C20.9617 9.44623 20.849 9.44308 20.8049 9.40283H20.8038C20.7748 9.39556 20.7441 9.39764 20.7163 9.40878C20.5004 9.61318 20.5648 9.67478 20.6666 9.87218C20.6446 9.90228 20.6225 9.93168 20.6036 9.95968C20.4622 9.73673 20.2949 9.87498 20.136 9.94918C20.1556 10.0741 20.1619 10.1389 20.2018 10.2838C20.2928 10.3583 20.1763 10.4161 20.171 10.4444C20.171 10.4329 20.185 10.421 20.184 10.4094C20.1775 10.3495 20.1523 10.2932 20.1119 10.2486C20.0714 10.2039 20.0179 10.1732 19.9589 10.1609C19.8846 10.1412 19.812 10.1154 19.7419 10.0839C19.5494 10.0832 19.4745 10.0164 19.3275 9.97403C19.2803 10.0164 19.2796 9.92853 19.2425 9.89353C19.1676 9.80953 19.0388 9.84103 18.9639 9.82703C18.7983 9.88653 18.7122 9.95618 18.5817 10.0363C18.5166 10.2302 18.2863 10.345 18.147 10.5354C17.7497 11.142 17.6332 11.6344 17.3602 12.1902C17.2461 12.4093 17.0868 12.6298 16.9636 12.8227C16.7764 13.1268 16.8702 13.4842 16.9818 13.7631C17.0062 13.7857 17.0371 13.7999 17.07 13.8037C17.2065 13.6921 17.1369 14.0491 17.1726 14.1898C17.1939 14.2762 17.0917 14.3063 17.0634 14.3473C16.7575 14.7484 16.7694 14.8086 16.4351 14.3217C16.495 14.0414 16.3574 13.984 16.23 13.8667C15.9703 13.9892 15.9511 14.2157 15.9175 14.4551C16.0284 14.572 15.8545 14.5786 15.8205 14.6458C15.726 14.7015 15.7225 14.8145 15.684 14.8884C15.5381 14.9689 15.5836 15.0739 15.5752 15.2034C15.5944 15.2496 15.5531 15.265 15.5367 15.3094C15.4765 15.4249 15.6168 15.4736 15.6434 15.5282C15.7659 15.5324 15.8569 15.4186 15.9245 15.371C15.9805 15.3255 15.9861 15.28 16.019 15.2363C16.0568 15.2916 15.991 15.3255 15.9595 15.4246C15.9367 15.4519 15.9507 15.4841 15.9465 15.5128C16.1208 15.5898 15.9843 15.6167 16.0358 15.7627C16.0659 15.882 16.1915 15.8106 16.2479 15.8278C16.3361 15.8925 16.3077 16.0147 16.3224 16.1162L16.0932 16.2065C15.9462 16.2457 15.8247 16.3486 15.7173 16.42C15.649 16.5103 15.6466 16.6296 15.649 16.84C15.6518 17.0874 15.6452 17.1991 15.6714 17.2866C15.677 17.4336 15.8373 17.337 15.8877 17.352C15.7526 17.6324 15.6032 17.869 15.5244 18.1801C15.4236 18.4391 15.3158 18.3149 15.0673 18.4521C15.0155 18.5662 15.0281 18.6526 15.0474 18.7363C15.1184 18.7643 15.152 18.7268 15.2171 18.7181C15.0435 18.9435 15.0106 19.2067 15.0078 19.459C15.0505 19.6256 15.0376 19.725 14.9546 19.8678C14.933 19.8998 14.9184 19.9359 14.9116 19.9739C14.9072 19.9998 14.9118 20.0265 14.9245 20.0495C14.9343 20.067 14.9508 20.0792 14.9676 20.0887L14.9662 20.0831C14.9655 20.0824 14.9686 20.0953 14.9977 20.1016C14.9871 20.0987 14.977 20.0943 14.9676 20.0887C14.9686 20.0918 14.9697 20.0943 14.9697 20.0988C14.9697 20.1636 15.0005 20.1975 15.0327 20.2336C15.3144 20.5055 15.5479 20.6459 15.9329 20.6389C15.9714 20.6179 16.1093 20.5458 16.237 20.4796C16.3735 20.4086 16.544 20.2931 16.6381 20.2056C16.7403 20.1104 16.8166 20.0575 16.8576 20.0421C16.9241 20.0316 16.9892 20.1009 17.041 20.124C17.098 20.1261 17.1411 20.1009 17.1866 20.0708C17.2552 20.0033 17.217 20.0978 17.231 20.1097L17.2048 20.2731C17.0788 20.3949 17.2212 20.432 17.2321 20.5405C17.2618 20.5766 17.2996 20.6126 17.3423 20.6441C17.4606 20.7327 17.5247 20.8415 17.5418 20.9773C17.5488 21.0333 17.5653 21.1068 17.5828 21.1597C17.588 21.196 17.5803 21.233 17.5611 21.2643C17.4911 21.3858 17.4435 21.5541 17.4204 21.7025C17.4085 21.7688 17.404 21.8362 17.4071 21.9034C17.3917 22.0004 17.4991 22.0459 17.5208 22.0791C17.5341 22.0966 17.5516 22.1271 17.5691 22.1659C17.6041 22.244 17.6388 22.357 17.6629 22.4844C17.6776 22.5621 17.6979 22.6374 17.7182 22.6986C17.7637 22.8222 17.8432 22.9156 17.9139 23.0171C17.9548 23.1452 17.9944 23.2796 18.0231 23.3881C18.0777 23.4406 18.1666 23.4588 18.2436 23.4252C18.3563 23.3759 18.5159 23.2782 18.6643 23.1764C18.974 23.0056 19.1273 22.7039 19.274 22.4256C19.3825 22.1547 19.4812 21.8933 19.6268 21.6602C19.6873 21.5272 19.7069 21.3606 19.6523 21.2241C19.6929 21.0316 19.8973 20.8433 20.009 20.7166C20.1836 20.4474 20.1136 20.144 20.0555 19.8745C19.9918 19.585 20.1311 19.3421 20.2134 19.164C20.5137 18.7454 20.7839 18.2911 20.9666 17.834C21.0985 17.4129 21.01 17.5141 20.7881 17.443C21.1388 17.1581 21.4373 16.7549 21.6648 16.378C21.7317 16.273 21.7698 16.1788 21.7527 16.084C21.7016 15.8572 21.5693 15.9653 21.8923 15.8372C22.0603 15.6773 22.187 15.7711 22.3053 15.7735C22.3536 15.8306 22.4187 15.8785 22.4712 15.9268L22.5307 26.4629C22.4327 26.501 22.3669 26.5532 22.2231 26.6085C21.8521 26.7884 21.6869 26.7842 21.4251 26.6564C21.073 26.6319 20.8931 26.8776 20.765 27.1247C20.4895 27.3424 20.2148 27.5902 19.9775 27.9178C19.8459 28.2314 19.5743 28.2335 19.3002 28.2773C19.3268 28.3924 19.1812 28.3847 19.1182 28.4418C18.7392 28.8842 18.4567 29.0263 17.9139 29.0879C17.7994 29.0109 17.7396 29.1659 17.6815 29.1953C17.5583 29.413 17.3511 29.4687 17.1421 29.5705C16.8978 29.7805 16.783 29.6762 16.6014 29.588C16.3823 29.6318 16.341 29.846 16.2703 30.0171C15.8867 30.2936 15.6347 30.4532 15.403 30.8743C15.3906 30.9046 15.375 30.9335 15.3564 30.9604C15.2105 31.086 15.0267 31.2999 14.8745 31.4539C14.7873 31.7846 14.6662 31.925 14.5353 32.121C14.4958 32.1798 14.4552 32.247 14.4268 32.3037L14.396 32.3646L12.5064 33.2424C12.4948 32.6362 12.4742 29.1393 12.4532 25.0993C12.5694 24.9936 12.7139 24.8403 12.8291 24.7342C12.96 24.6502 13.031 24.5638 13.1035 24.4035C13.2568 23.9761 13.2732 23.5831 13.4535 23.2296C13.5308 23.0903 13.5767 23.0038 13.604 22.9251C13.6306 22.846 13.6337 22.7753 13.6285 22.6972C13.5525 22.4081 13.3859 22.4753 13.1185 22.4382C12.8907 22.5012 12.6642 22.4991 12.4409 22.4585C12.429 20.0103 12.4164 17.4458 12.408 15.468C12.5459 15.3889 12.6271 15.4809 12.7083 15.4921C13.0314 15.433 13.037 15.2079 13.0828 14.9262C13.1353 14.6497 13.2599 14.3242 13.3814 14.0515C13.5718 13.9234 13.7279 13.7106 13.8164 13.4677C13.8794 13.2612 14.0492 13.1485 14.1839 13.0337C14.3012 12.9371 14.445 12.7754 14.5654 12.6204C14.7012 12.5035 14.7376 12.3173 14.7814 12.193C14.9277 12.0716 14.808 11.6246 14.8024 11.5004C14.767 11.2893 14.8969 11.177 14.9168 10.9603H14.9182C14.9312 10.4143 15.1632 9.98418 15.1097 9.52498C14.9959 9.48508 15.0677 9.44098 15.0432 9.39163L17.6108 8.19883C17.6209 8.21983 17.6384 8.23733 17.6493 8.25203C18.0297 8.67553 18.0325 8.55618 18.1778 8.10573C18.3591 7.84813 18.6492 8.02033 18.7819 7.65458L22.4138 5.96758ZM1.78027 6.06873L6.21827 8.12988C6.05797 8.22893 5.96382 8.39448 5.87002 8.54463C6.02507 8.72663 6.13252 8.83443 6.25992 9.01153C6.34602 9.01783 6.32047 9.08958 6.34882 9.12563C6.52242 9.42768 6.74572 9.63663 7.03097 9.70628C7.29312 9.73043 7.40547 9.78188 7.63192 9.86378C7.86117 9.67338 7.67637 9.88968 7.80937 9.96668C7.94412 10.0566 8.09812 10.1609 8.21537 10.2495C8.26647 10.3349 8.28362 10.3741 8.32282 10.4122C8.19262 10.344 7.91577 10.2838 7.77682 10.26C7.76562 10.3394 7.71032 10.4875 7.62982 10.4511C7.62142 10.4073 7.65082 10.3216 7.66132 10.26C7.67777 10.1459 7.53742 10.113 7.48142 10.0573C7.35542 10.0251 7.19197 10.0923 7.12337 10.1144C6.85387 10.0335 6.79437 9.86973 6.66487 9.64923C6.56932 9.45603 6.42337 9.34333 6.27357 9.21873C6.24294 9.17049 6.20324 9.12865 6.15667 9.09553C5.92847 8.90338 5.87457 9.02973 5.71567 9.06018C5.73177 9.43888 5.59702 9.70838 5.74157 10.0262C5.83362 10.3069 5.88507 10.2978 6.12447 10.3055C6.34532 10.3552 6.31557 10.6264 6.34672 10.7657H6.33097C6.27555 10.7066 6.21639 10.6511 6.15387 10.5995C6.07092 10.5624 6.00162 10.4903 5.95017 10.4532C5.81402 10.3163 5.72897 10.2257 5.62537 10.1095C5.47102 10.057 5.27817 10.0745 5.09582 10.0909C4.96702 10.1196 4.89457 10.1231 4.85852 10.1119C4.47247 9.62333 3.78577 9.23133 3.44277 8.86733C3.14772 8.53168 2.97832 8.61673 2.65947 8.62583C2.41587 8.85578 2.36512 8.84668 2.12257 8.93838C2.22407 9.26913 2.21602 9.38533 2.05607 9.65063C2.12012 9.96003 2.24542 10.0727 2.44947 10.2393C2.57617 10.3009 2.39032 10.2887 2.34902 10.3233C2.16912 10.5113 2.12887 10.6324 2.05362 10.8287C2.06727 10.9813 2.20587 10.9957 2.28252 11.052C2.60557 11.1994 2.59822 11.3985 2.80507 11.5791C2.74067 11.6936 2.26397 11.7968 2.05607 11.9176C2.07252 12.1066 2.18557 12.0222 2.29757 12.0639C2.36617 11.9788 2.46732 12.0429 2.54467 12.0338C2.91287 12.1062 3.15612 11.8465 3.13022 12.2007C3.33917 12.1626 3.44942 12.0268 3.56317 11.9039C3.63492 11.556 4.14067 11.9547 4.24532 12.0404C4.31777 12.0775 4.40562 12.1594 4.52532 12.3208C4.79202 12.5756 4.90507 12.823 5.07132 13.0981C5.17352 13.1996 5.02967 13.2378 5.00202 13.3312C5.00762 13.5664 5.12872 13.7001 5.24212 13.8534C5.49762 13.8461 5.39682 13.9297 5.41082 14.1079C5.50917 14.3214 5.65162 14.5384 5.73702 14.6948C5.74682 14.7746 5.75032 14.9104 5.75277 15.1474C5.71112 15.9125 6.04467 16.3951 6.41357 17.0192C6.56407 17.1641 6.52067 17.3629 6.54027 17.4661C6.72192 17.744 6.85667 18.0674 7.08032 18.3159C7.37782 18.4139 7.46252 18.8871 7.82197 19.2644C8.05472 19.4989 8.16602 19.5955 8.28817 19.6326C8.36692 19.6564 8.39527 19.6788 8.47542 19.7912H8.47612C8.54472 19.8878 8.67177 20.0229 8.77467 20.1111C9.03367 20.4838 9.26957 20.8093 9.59927 21.1222C9.82467 21.3434 9.78757 21.3714 9.58142 21.5835C9.56392 21.6227 9.52577 21.6528 9.49882 21.6868C9.50967 21.8499 9.47362 22.0053 9.44457 22.1453C9.48482 22.3 9.55832 22.4379 9.62237 22.5618C9.82362 23.0707 9.99932 23.442 10.2965 23.799C10.4946 24.4731 10.2065 25.3198 10.0826 26.0166C10.0973 26.3201 10.0137 26.591 9.98952 26.7187C9.97362 26.7355 9.96129 26.7553 9.95328 26.7769C9.94528 26.7986 9.94177 26.8217 9.94297 26.8447C10.1337 27.1142 10.0252 27.3998 10.139 27.9052C10.272 28.0351 10.2709 28.1632 10.3252 28.2874C10.4277 28.4194 10.602 28.4813 10.7396 28.5534C10.8789 28.6798 10.9426 28.5485 11.0315 28.5394C10.9821 28.3728 10.861 28.2283 10.7749 28.0634C10.6829 27.942 10.7662 27.7873 10.7655 27.7351C10.8089 27.6567 10.8974 27.5598 10.9902 27.446C10.8099 27.1128 10.9811 27.0985 11.1522 26.9116C11.1239 26.7509 11.2019 26.808 11.2541 26.6988C11.2534 26.5616 11.3626 26.6645 11.4189 26.6463L11.4399 30.3213C11.4137 30.3241 11.3871 30.3227 11.3622 30.3276C11.0374 30.4179 10.8659 30.6223 10.6566 30.8246C10.6804 31.1504 10.7207 31.2463 10.4319 31.0451C10.175 31.1203 10.0854 31.2442 9.96572 31.3863C9.91602 31.4381 9.98742 31.4906 9.99512 31.5263C9.82362 31.835 9.51142 31.6803 9.24962 31.5004C8.96332 31.2771 8.75017 31.1816 8.45827 31.0685C8.44777 31.0587 8.43727 31.0353 8.41382 30.9604C8.26472 30.7154 8.11877 30.6933 7.78417 30.5929C7.67287 30.546 7.63332 30.679 7.57522 30.7122C7.48457 30.9565 7.61477 31.0244 7.69142 31.1777C7.68582 31.2337 7.66447 31.2789 7.62142 31.2939C7.61582 31.1231 7.50522 31.1508 7.40617 31.078C7.34107 31.0745 7.27947 31.0815 7.22522 31.0829C6.93787 30.721 6.47097 30.5071 6.19832 30.2698L5.77517 29.9002L5.64217 30.0171H5.64112C5.24807 29.9657 4.78012 29.9737 4.56872 30.0357L1.78027 28.74V6.06873ZM22.4187 6.74948L22.4268 8.14668L22.4117 8.14598C22.1807 8.15123 22.2343 8.13583 22.137 8.37523C22.1902 8.51243 22.1622 8.63843 22.1744 8.77633C22.1818 8.80748 22.2112 8.83093 22.2381 8.85368C22.1366 8.82253 22.0166 8.80118 21.9102 8.81168C21.6253 8.85928 21.5322 8.70248 21.4202 8.56248C21.5626 7.80718 21.9123 7.25593 22.4187 6.74948ZM7.15382 8.56528C7.35997 8.65978 7.34142 8.70353 7.40407 8.91038C7.42052 9.10288 7.60217 8.95308 7.63787 8.96113C7.63437 8.90863 7.66622 8.85963 7.68022 8.80923C7.90772 8.92298 8.12577 9.12073 8.25387 9.22818C8.10932 9.22293 8.15517 9.24078 8.05087 9.25443C8.03269 9.25476 8.01492 9.25996 7.99942 9.26948C7.86432 9.22538 7.78872 9.16238 7.68792 9.11898C7.63052 8.97268 7.51257 9.11688 7.46287 9.11618C7.44866 9.14406 7.44213 9.17523 7.44397 9.20648C7.49892 9.26598 7.52097 9.34963 7.52937 9.43678C7.69877 9.50398 7.53392 9.48823 7.53462 9.49698C7.53392 9.47703 7.53112 9.45673 7.52937 9.43678C7.52902 9.43643 7.52832 9.43678 7.52797 9.43608C7.47814 9.37823 7.44841 9.30577 7.44327 9.22958C7.44257 9.22153 7.44397 9.21418 7.44397 9.20648C7.42679 9.18661 7.40616 9.17001 7.38307 9.15748C7.36207 9.14663 7.35717 9.14103 7.35437 9.13858C7.35157 9.15048 7.35542 9.16063 7.35017 9.17288C7.35182 9.15983 7.35062 9.14658 7.34667 9.13403C7.34932 9.1354 7.35189 9.13692 7.35437 9.13858C7.36112 9.11215 7.36133 9.08448 7.35499 9.05796C7.34865 9.03143 7.33594 9.00685 7.31797 8.98633V8.98563C7.31972 8.98738 7.32077 8.96113 7.31202 8.98143C7.25532 8.65943 7.08207 8.82358 6.93857 8.89603C6.80802 8.65348 6.95607 8.63773 7.15382 8.56528ZM8.62592 9.24883L8.83627 9.34683C8.79532 9.42733 8.86882 9.51588 8.88352 9.59253C8.87862 9.61318 8.82507 9.65798 8.79602 9.69053C8.75542 9.63348 8.71027 9.57818 8.64097 9.56173C8.61787 9.55648 8.59757 9.54248 8.57237 9.48543C8.33332 9.32688 8.58532 9.43118 8.61542 9.30623C8.62277 9.28873 8.62417 9.26878 8.62592 9.24883ZM10.1064 9.93658L10.3199 10.0356C10.4624 10.2838 10.4046 10.288 10.3724 10.5088C10.5625 10.8462 10.5814 11.0524 10.8953 11.2799C11.1141 11.2582 11.1858 11.3128 11.3321 11.4699L11.358 15.9877C11.295 15.7672 11.2198 15.5495 11.1235 15.3185C10.7788 14.9738 10.8383 15.6314 10.678 15.0669C10.657 15.0249 10.7217 14.9839 10.7434 14.9426C10.7784 14.9699 10.7949 14.9871 10.8372 15.0011C11.0973 14.6434 11.1659 14.4813 11.343 14.0813C11.3265 13.9924 11.274 13.9105 11.1858 13.7761C11.151 13.7241 11.1192 13.6701 11.0906 13.6144C11.1074 13.5157 10.9961 13.4996 10.959 13.4544C10.8029 13.285 10.8981 13.1996 10.8582 12.977C10.7424 12.6883 10.5303 12.4076 10.3682 12.1731C10.1943 12.0128 10.1085 11.7328 10.0196 11.5266C9.95277 11.4059 9.83237 11.2956 9.70322 11.2095C9.52367 11.178 9.36232 11.0345 9.28812 10.9939C9.18172 10.8637 8.83417 10.9229 8.83312 10.9229C8.82192 10.8529 8.83242 10.7363 8.86497 10.7283C9.05284 10.8311 9.24367 10.9285 9.43722 11.0202C9.59472 11.1469 9.62482 11.0237 9.73717 11.0069C9.77217 10.7829 9.78967 10.715 9.67417 10.4952C9.70392 10.4938 9.72737 10.5022 9.76167 10.4962C9.81767 10.4868 9.86737 10.4731 9.90832 10.4329C9.85932 10.1476 9.96887 10.1228 10.0343 9.97263C10.0613 9.96762 10.0862 9.95513 10.1064 9.93658ZM18.2632 12.249C18.2842 12.2368 18.2369 12.4247 18.2534 12.6449C18.2513 12.7411 18.3706 12.7369 18.4161 12.7726C18.4189 12.7887 18.316 12.9896 18.2877 13.0414C18.2849 13.0764 18.2667 13.1083 18.2562 13.1419C18.0476 13.1149 18.2464 13.0579 18.2324 12.9389C18.238 12.8426 18.2138 12.738 18.1351 12.6655C18.1106 12.6428 18.1001 12.6116 18.1246 12.5231C18.2138 12.3358 18.2506 12.2564 18.2632 12.249ZM32.0682 12.4727C31.8145 12.5294 31.924 12.6827 31.8925 12.7702C32.2208 12.9742 32.218 12.7765 32.3213 12.6757C32.2198 12.5217 32.1431 12.4657 32.0682 12.4727ZM9.58002 12.5402L9.58212 12.5409C9.62517 12.563 9.66647 12.5794 9.70462 12.5889C9.76587 12.5644 9.76342 12.627 9.78932 12.6435C9.81662 12.7089 9.83412 12.8059 9.83237 12.8185C9.81697 13.053 9.78197 13.1643 9.95137 13.3662C10.0077 13.4124 10.0798 13.3631 10.1243 13.362C10.2146 13.4432 10.0084 13.5846 9.99827 13.5979C9.82782 13.4527 9.82852 13.6287 9.72982 13.6732C9.73822 13.7054 9.69237 13.7285 9.67382 13.7565C9.65642 13.7355 9.64107 13.7129 9.62797 13.6889C9.59052 13.5559 9.51142 13.4754 9.39067 13.3081C9.61222 13.2322 9.60662 13.0229 9.63952 12.85C9.64232 12.6942 9.61467 12.6186 9.58002 12.5402ZM15.2203 12.774C15.081 12.8332 14.9914 12.8923 14.8696 12.977C14.7341 13.1111 14.696 13.0253 14.549 13.04C14.3876 13.1468 14.367 13.3102 14.3152 13.4635C14.4062 13.5878 14.4755 13.7379 14.5574 13.8776C14.6837 13.8216 14.8216 13.8111 14.9529 13.7988C14.9804 13.7882 15.0056 13.7721 15.027 13.7517C15.0484 13.7313 15.0655 13.7069 15.0775 13.6798C15.1965 13.5507 15.3211 13.3872 15.424 13.2402C15.5178 12.9777 15.3939 12.921 15.2203 12.774ZM18.1484 13.6417L18.1435 13.6497C18.0913 13.6448 18.0378 13.6606 17.9895 13.6655C18.0035 13.6301 18.0126 13.5689 18.0231 13.5171C18.0917 13.5451 18.1725 13.4597 18.2103 13.445C18.224 13.4604 18.1837 13.5717 18.1484 13.6417ZM8.91012 13.5909C8.93637 13.5801 8.96717 13.6196 9.06657 13.7995C9.43092 13.9035 9.13657 13.9063 9.20832 14.0526C9.33537 14.2615 9.39102 14.1807 9.57197 14.0935C9.62657 13.9059 9.67312 14.1128 9.70322 14.1187C9.44317 14.1012 9.65142 14.1551 9.51422 14.2514C9.50302 14.4638 9.63602 14.3973 9.72072 14.4659C9.76062 14.4019 9.73507 14.5212 9.73997 14.5405C9.77462 14.7449 9.69657 14.7421 9.63497 14.8782C9.72212 15.055 9.77147 15.1988 9.82152 15.4113C9.72457 15.4375 9.68222 15.5327 9.62202 15.5863L9.57652 15.5611C9.61922 15.4312 9.52227 15.3707 9.49252 15.2814C9.27552 15.1544 9.12957 14.9783 9.02072 14.8387C8.85622 14.7347 8.75892 14.5555 8.66827 14.4463C8.65147 14.3399 8.61227 14.2461 8.53702 14.1863C8.44602 13.935 8.60387 13.8331 8.77957 13.6875C8.86217 13.6641 8.88387 13.6021 8.91012 13.5909ZM20.9305 14.3259C20.92 14.4194 20.9865 14.4992 21.0089 14.5699C21.0443 14.6175 21.0264 14.6665 21.0352 14.7169C21.0047 14.7337 20.9757 14.7526 20.9477 14.7764C20.9435 14.7788 20.8756 14.7533 20.8476 14.7442C20.8766 14.6409 20.9141 14.6339 20.9491 14.5755C20.989 14.4785 20.87 14.4169 20.8395 14.356C20.7216 14.2741 20.7345 14.1558 20.6918 14.0463C20.7695 13.9087 20.885 14.2605 20.9305 14.3259ZM10.112 14.1303C10.1565 14.1779 10.2055 14.2615 10.2527 14.3823C10.3266 14.4824 10.1603 14.3221 10.1316 14.3032C10.0729 14.2714 10.0157 14.237 9.96012 14.1999C9.96117 14.1985 9.96362 14.1999 9.96502 14.1982C9.87402 13.8636 10.0007 14.1814 10.112 14.1303ZM19.7048 14.5993C19.7545 14.5989 19.8277 14.6178 19.9295 14.6658C19.8903 14.7876 19.5564 14.8114 19.4325 14.8275C19.302 14.9367 19.1683 15.1078 19.0493 15.1173C19.0878 14.9503 19.1714 14.7974 19.2509 14.635C19.3912 14.8002 19.4364 14.6924 19.5834 14.6539C19.6254 14.6133 19.6555 14.5996 19.7048 14.5993ZM30.8016 15.3301C30.7833 15.3334 30.7661 15.341 30.7512 15.3521C30.7364 15.3633 30.7244 15.3778 30.7162 15.3945C30.6945 15.56 30.824 15.6269 30.894 15.7144C31.0735 15.7861 30.9734 15.5485 31.0011 15.4904C31.0291 15.3787 30.8548 15.3707 30.8016 15.3301ZM18.8277 15.9286C18.9516 15.9905 19.0794 15.9226 19.1858 15.8974C19.5547 15.6874 19.5043 15.8393 19.3678 16.14C19.0283 16.2894 18.5813 16.4035 18.2562 16.5134C18.1435 16.8939 17.9443 16.7815 17.6206 16.7724C17.5936 16.7847 17.5744 16.7819 17.5506 16.7833C17.5551 16.7686 17.5663 16.7549 17.5691 16.7395C17.5772 16.6979 17.5803 16.6538 17.5796 16.6111C17.5996 16.3881 17.4592 16.4704 17.3801 16.4046C17.4669 16.2957 17.4526 16.1648 17.4641 16.0423C17.805 15.8449 17.6472 16.1228 17.6608 16.1389C17.4148 16.3297 17.5418 16.3304 17.6759 16.4812C17.7473 16.4882 17.8138 16.4805 17.8701 16.4476C17.9566 16.3346 17.9699 16.2905 18.0325 16.1648C18.2096 15.6846 18.2943 16.2096 18.6576 15.9713C18.6174 15.5632 18.7654 15.9443 18.8277 15.9289V15.9286ZM17.1575 16.3888C17.1743 16.4287 17.2223 16.4494 17.2615 16.4532C17.2499 16.4588 17.2405 16.4623 17.2282 16.469C17.0168 16.5775 16.8296 16.7028 16.6395 16.8277C16.6084 16.8498 16.5944 16.8655 16.5685 16.8851C16.5531 16.5946 16.7239 16.7 16.775 16.6482C16.9808 16.5768 16.8891 16.4865 16.9206 16.365C16.8271 16.0458 16.9563 16.1648 17.1145 16.0192C17.1897 15.9233 17.1495 16.2873 17.1575 16.3888ZM2.82852 16.0122C2.62832 16.1428 2.79317 16.2212 2.83832 16.2667C2.93667 16.3923 3.01122 16.5278 3.08192 16.6643C3.24572 16.847 3.26532 16.6443 3.35177 16.6226C3.35527 16.5694 3.31397 16.5327 3.29647 16.4914C3.21632 16.343 3.08192 16.2247 2.97727 16.119C2.92547 16.0791 2.87437 16.0455 2.82817 16.0122H2.82852ZM31.3941 16.0122C31.2366 15.9891 31.3346 16.1743 31.321 16.2107C31.3528 16.2737 31.4305 16.2646 31.4764 16.287C31.7508 16.2779 31.4914 16.0819 31.4928 16.0374C31.4627 16.0205 31.4287 16.0118 31.3941 16.0122ZM31.6867 16.4504C31.6741 16.4854 31.6808 16.5414 31.7109 16.5729C31.9884 16.645 31.8533 16.5257 31.9212 16.3951C31.8323 16.2737 31.7333 16.4396 31.6867 16.4504ZM32.1837 16.5932C32.0777 16.8347 32.2348 16.8246 32.3535 16.9002C32.4889 16.8673 32.6097 16.9457 32.7595 16.9898C32.9016 16.9233 32.7325 16.785 32.728 16.7493C32.5799 16.6846 32.4679 16.666 32.3615 16.6461C32.309 16.5971 32.2355 16.6086 32.1837 16.5936V16.5932ZM9.36127 16.7367C9.38472 16.7434 9.40047 16.7756 9.41517 16.7903C9.46126 16.8484 9.48719 16.9199 9.48902 16.994C9.48902 17.0584 9.48482 17.1095 9.47957 17.1067C9.47432 17.1039 9.44107 17.0115 9.40572 16.9016C9.37072 16.7927 9.35532 16.7437 9.36127 16.7371V16.7367ZM9.56147 16.8519C9.58894 16.8701 9.61057 16.8959 9.62377 16.9261C9.63707 16.9562 9.63077 16.9712 9.60977 16.9604C9.5822 16.9426 9.56042 16.9172 9.54712 16.8872C9.53417 16.8571 9.54012 16.841 9.56147 16.8519ZM19.8445 17.197C19.8487 17.1781 19.9047 17.246 19.9173 17.2449C19.9992 17.3114 20.0247 17.4189 20.0713 17.5039C20.0562 17.5025 20.0426 17.4959 20.0268 17.4976C20.0198 17.4469 19.9085 17.3408 19.8669 17.2866C19.8609 17.2558 19.8518 17.2274 19.8441 17.197H19.8445ZM11.3377 17.211L11.365 17.2134L11.3664 17.4336C11.2733 17.5417 11.2121 17.4038 11.1179 17.3569C11.1055 17.3242 11.1024 17.2887 11.1092 17.2544C11.1225 17.2631 11.1323 17.2796 11.1456 17.2866C11.2324 17.3958 11.3031 17.2397 11.3402 17.2285C11.3405 17.2204 11.3384 17.2173 11.3377 17.2113V17.211ZM10.6545 17.7136C10.6937 17.7195 10.7301 17.7188 10.7641 17.715C10.819 17.9418 10.9083 17.8837 11.0833 17.8928C11.1799 17.9026 11.2831 17.8812 11.3689 17.8756L11.3902 21.6028C11.385 21.5947 11.3829 21.5933 11.3773 21.5853C11.2789 21.4362 11.2012 21.3711 11.0073 21.2745C10.8621 21.209 10.7368 21.0932 10.6206 21.0015C10.4575 20.8573 10.2776 20.7957 9.95452 20.8545C9.87437 20.8342 9.71652 20.7442 9.62447 20.705C9.59122 20.705 9.55692 20.6837 9.52122 20.613C9.48552 20.5423 9.46032 20.4299 9.46032 20.2952C9.46032 20.1678 9.45577 20.0754 9.40222 19.9942C9.05152 19.7597 9.09842 19.8689 9.14462 19.5395C9.14987 19.4433 9.21392 19.5374 9.26957 19.5357C9.45857 19.6312 9.61432 19.7821 9.77007 19.9273C9.75303 19.9323 9.73732 19.941 9.72406 19.9528C9.7108 19.9646 9.70034 19.9792 9.69342 19.9956C9.65842 20.1289 9.79387 20.1681 9.85792 20.2374C9.93142 20.2556 9.98532 20.2854 10.0455 20.3081C10.1565 20.3358 10.2345 20.4247 10.2916 20.4604C10.5709 20.4926 10.5891 20.5902 10.7847 20.7026C11.0357 20.6291 10.9639 20.6571 10.8617 20.4338C10.7364 20.431 10.7403 20.3333 10.6601 20.2651C10.5961 20.1555 10.4813 20.1279 10.3997 20.0722C10.2905 20.0838 10.3203 19.9042 10.3115 19.8157C10.3343 19.6858 10.1666 19.6876 10.1222 19.6484H10.1215C10.091 19.6514 10.0629 19.6664 10.0434 19.69C10.0084 19.7642 9.94017 19.6078 9.89397 19.571C10.0417 19.4174 9.96082 19.3068 9.94227 19.158C9.90517 19.0558 9.80087 19.0971 9.74347 19.0719C9.71407 18.9256 9.68607 18.7898 9.65527 18.6351C9.97167 18.4864 10.0865 18.3446 10.1978 18.0807C10.3602 17.8301 10.2128 18.0188 10.4837 17.9701C10.7459 17.9799 10.5712 17.8602 10.5856 17.7356C10.5786 17.7293 10.5821 17.7311 10.5821 17.7342C10.5821 17.7377 10.5807 17.737 10.5842 17.7328C10.5912 17.7244 10.6171 17.7083 10.6545 17.7139V17.7136ZM8.44252 18.3303C8.47367 18.3413 8.50259 18.3577 8.52792 18.3789C8.77887 18.5641 9.00917 18.5448 9.26222 18.7226C9.30352 18.8224 9.33957 18.9683 9.37492 19.0796L9.33292 19.2431C9.13167 19.3572 8.98432 19.1913 8.75647 19.1412C8.68577 19.1657 8.65707 19.2221 8.63957 19.2861C8.23987 18.9991 8.18912 18.5847 8.44252 18.3306V18.3303ZM27.0219 18.934C27.0709 19.0187 26.9537 19.0506 26.9229 19.1034C26.8669 19.0254 26.8102 18.9477 26.7538 18.8696C27.0422 18.6425 26.8763 18.8917 27.0219 18.934ZM20.6932 19.7516C20.6208 19.843 20.5609 19.9375 20.5077 20.0127C20.4356 19.9049 20.3145 19.9287 20.219 19.9025C20.0989 20.0274 20.2095 20.095 20.2099 20.172C20.3026 20.1993 20.3961 20.1422 20.4671 20.131C20.3649 20.2269 20.2904 20.3564 20.2207 20.4611C20.2148 20.6406 20.1892 20.7117 20.1745 20.8692C20.0835 21.5062 20.3796 21.5482 20.689 21.1359C20.7191 21.0564 20.7461 20.9514 20.7821 20.7904C20.8308 20.5738 20.8889 20.3368 20.9046 20.2868C20.9956 19.9119 20.8994 19.8892 20.6932 19.7513V19.7516ZM26.5953 20.2696C26.6583 20.7316 27.7363 21.1625 27.5228 20.6126C27.4913 20.5948 27.456 20.5846 27.4199 20.5829C27.1133 20.5416 26.6793 20.2035 26.5953 20.2696ZM21.2991 20.3284C21.2802 20.3278 21.2614 20.3316 21.2441 20.3393C21.0233 20.5538 21.2896 20.5094 21.3187 20.5836C21.543 20.4915 21.3019 20.3655 21.2991 20.3284ZM30.8089 20.5822C30.7922 20.6024 30.7831 20.6277 30.783 20.6539C30.8233 20.7148 30.8222 20.7785 30.8317 20.8083C30.8114 21.0008 30.9657 20.9955 31.0487 21.0526C31.0717 21.042 31.0903 21.0238 31.1015 21.0011C31.1176 20.8499 31.0133 20.6816 30.9703 20.565C30.9083 20.4971 30.8579 20.5769 30.8093 20.5822H30.8089ZM31.2275 20.971C31.1708 21.0011 31.1701 21.0484 31.1701 21.0813C31.1274 21.2444 31.3234 21.2157 31.3626 21.2479C31.4599 21.2153 31.3924 21.117 31.4032 21.0694C31.4032 20.9427 31.273 20.9966 31.2275 20.9714V20.971ZM30.5629 23.5516C30.621 23.7119 30.7263 23.8211 30.8303 23.9474C30.9881 24.127 30.9853 23.8323 31.0161 23.8092C30.9447 23.6723 30.8446 23.5579 30.7522 23.4375C30.6378 23.2744 30.6199 23.5173 30.5632 23.5516H30.5629ZM31.3332 25.4006C31.3308 25.5035 31.3829 25.6054 31.4092 25.6901C31.5187 26.0968 31.3696 26.0229 31.0669 26.2606C30.8401 26.3117 30.8548 26.4391 30.7851 26.5752C30.9048 26.6333 30.8366 26.711 30.8618 26.7782C30.9832 26.9616 31.1138 26.8839 31.3073 26.8419C31.2996 26.6683 31.4508 26.7096 31.503 26.6613C31.5226 26.6571 31.5407 26.6476 31.5555 26.634C31.5135 26.4958 31.6815 26.494 31.7116 26.4604C31.9303 26.3019 31.9709 26.2301 32.0094 25.9844C31.9888 25.9375 31.9611 25.9225 31.9324 25.9053C31.7935 25.8563 31.749 25.7233 31.6846 25.597C31.5075 25.1567 31.483 25.4258 31.3332 25.401V25.4006Z" fill="#A63665"/>
</g>
<defs>
<filter id="filter0_d_34_1580" x="-5.96973" y="-1.17761" width="47.0005" height="43.501" filterUnits="userSpaceOnUse" color-interpolation-filters="sRGB">
<feFlood flood-opacity="0" result="BackgroundImageFix"/>
<feColorMatrix in="SourceAlpha" type="matrix" values="0 0 0 0 0 0 0 0 0 0 0 0 0 0 0 0 0 0 127 0" result="hardAlpha"/>
<feMorphology radius="1" operator="dilate" in="SourceAlpha" result="effect1_dropShadow_34_1580"/>
<feOffset dy="1"/>
<feGaussianBlur stdDeviation="2.5"/>
<feColorMatrix type="matrix" values="0 0 0 0 0 0 0 0 0 0.1625 0 0 0 0 0.1625 0 0 0 0.2 0"/>
<feBlend mode="normal" in2="BackgroundImageFix" result="effect1_dropShadow_34_1580"/>
<feBlend mode="normal" in="SourceGraphic" in2="effect1_dropShadow_34_1580" result="shape"/>
</filter>
</defs>
</svg>
